<svg class="error-icon" width="121" height="120" viewBox="0 0 121 120" fill="none" xmlns="http://www.w3.org/2000/svg">
    <path
      fill-rule="evenodd"
      clip-rule="evenodd"
      d="M61.4043 39.1836C70.8537 39.1836 78.8337 45.513 81.3334 54.1607C83.4052 51.0196 85.6307 47.7248 88.0099 44.2763C90.1861 41.0957 93.1783 39.5054 96.9867 39.5054L102.448 39.5682C105.503 39.5682 107.575 40.0913 108.663 41.1376C109.751 42.142 110.295 43.9206 110.295 46.4734V63.046C112.095 63.2134 113.329 63.6529 113.999 64.3643C114.668 65.0758 115.003 66.2057 115.003 67.7542C115.003 69.3445 114.647 70.4535 113.936 71.0813C113.224 71.6672 112.011 72.0229 110.295 72.1484C110.295 75.4546 109.688 77.8191 108.475 79.242C107.261 80.6649 105.44 81.3764 103.013 81.3764C100.544 81.3764 98.7444 80.7068 97.6144 79.3676C96.4845 77.9865 95.9195 75.6011 95.9195 72.2112H84.3061C82.0739 72.2112 80.3067 71.7744 79.0044 70.9008C75.3385 76.7642 68.8244 80.6669 61.4043 80.6669C54.0882 80.6669 47.6529 76.8728 43.96 71.146C43.239 71.6934 42.0527 72.0276 40.401 72.1484C40.401 75.4546 39.7942 77.8191 38.5805 79.242C37.3669 80.6649 35.5464 81.3764 33.1191 81.3764C30.65 81.3764 28.8504 80.7068 27.7205 79.3676C26.5905 77.9865 26.0255 75.6011 26.0255 72.2112H14.4122C11.6919 72.2112 9.66218 71.5625 8.32298 70.2652C7.02563 68.9678 6.37695 67.2938 6.37695 65.2432C6.37695 63.0251 6.94193 61.0582 8.07188 59.3423C11.0432 54.697 14.3912 49.675 18.1159 44.2763C20.2921 41.0957 23.2844 39.5054 27.0927 39.5054L32.5541 39.5682C35.6092 39.5682 37.6808 40.0913 38.7689 41.1376C39.857 42.142 40.401 43.9206 40.401 46.4734V63.046C40.5742 63.0621 40.7421 63.0808 40.9048 63.1019C40.7454 62.0662 40.6627 61.0053 40.6627 59.9253C40.6627 48.4759 49.9549 39.1836 61.4043 39.1836ZM61.2341 67.102C63.1276 67.102 64.6627 63.8126 64.6627 59.755C64.6627 55.6974 63.1276 52.4081 61.2341 52.4081C59.3405 52.4081 57.8055 55.6974 57.8055 59.755C57.8055 63.8126 59.3405 67.102 61.2341 67.102ZM95.2186 63.2971C95.5725 63.2971 95.8607 63.0129 95.8657 62.6591L96.0126 52.2307C96.0218 51.5768 95.166 51.3234 94.8177 51.877L88.2571 62.3054C87.986 62.7363 88.2958 63.2971 88.8049 63.2971H95.2186ZM25.9717 62.6591C25.9668 63.0129 25.6785 63.2971 25.3246 63.2971H18.9109C18.4018 63.2971 18.092 62.7363 18.3632 62.3054L24.9237 51.877C25.272 51.3234 26.1278 51.5768 26.1186 52.2307L25.9717 62.6591Z"
      fill="#808080"
    />
    <path
      fill-rule="evenodd"
      clip-rule="evenodd"
      d="M61.2351 50.9384C59.3783 50.9384 58.1536 52.4931 57.4792 53.9382C56.7491 55.5027 56.3371 57.5607 56.3371 59.7547C56.3371 61.9487 56.7491 64.0067 57.4792 65.5711C58.1536 67.0163 59.3783 68.571 61.2351 68.571C63.0919 68.571 64.3166 67.0163 64.991 65.5711C65.7211 64.0067 66.133 61.9487 66.133 59.7547C66.133 57.5607 65.7211 55.5027 64.991 53.9382C64.3166 52.4931 63.0919 50.9384 61.2351 50.9384ZM59.2759 59.7547C59.2759 57.8911 59.6314 56.2756 60.1423 55.181C60.7087 53.9671 61.1983 53.8771 61.2351 53.8771C61.2719 53.8771 61.7614 53.9671 62.3279 55.181C62.8387 56.2756 63.1943 57.8911 63.1943 59.7547C63.1943 61.6183 62.8387 63.2338 62.3279 64.3284C61.7614 65.5423 61.2719 65.6322 61.2351 65.6322C61.1983 65.6322 60.7087 65.5423 60.1423 64.3284C59.6314 63.2338 59.2759 61.6183 59.2759 59.7547Z"
      fill="#444444"
    />
    <path
      fill-rule="evenodd"
      clip-rule="evenodd"
      d="M97.614 52.2529C97.646 49.9817 94.6734 49.1017 93.4639 51.0243L86.9033 61.4527C85.9616 62.9496 87.0375 64.8974 88.8059 64.8974H95.2196C96.4487 64.8974 97.4498 63.9102 97.4671 62.6813L97.614 52.2529ZM90.5321 61.6962L94.3653 55.6031L94.2795 61.6962H90.5321Z"
      fill="#444444"
    />
    <path
      fill-rule="evenodd"
      clip-rule="evenodd"
      d="M27.72 52.2529C27.752 49.9817 24.7794 49.1017 23.5699 51.0243L17.0094 61.4527C16.0677 62.9496 17.1435 64.8974 18.9119 64.8974H25.3256C26.5547 64.8974 27.5559 63.9102 27.5732 62.6813L27.72 52.2529ZM20.6382 61.6962L24.4714 55.6031L24.3855 61.6962H20.6382Z"
      fill="#444444"
    />
    <path
      fill-rule="evenodd"
      clip-rule="evenodd"
      d="M42.0026 49.1111C45.8015 42.3132 53.0693 37.7139 61.4053 37.7139C70.4092 37.7139 78.1669 43.0798 81.6531 50.7862C83.249 48.3973 84.9285 45.9251 86.6916 43.3696C89.1618 39.7609 92.6445 37.9045 96.9877 37.9045H96.9969L102.458 37.9673C105.552 37.9683 108.189 38.4703 109.761 39.9721C111.34 41.4387 111.897 43.7852 111.897 46.4731V61.6613C113.208 61.9291 114.364 62.4162 115.165 63.267C116.239 64.4079 116.605 66.026 116.605 67.7538C116.605 69.5047 116.226 71.1961 114.996 72.2811L114.975 72.2991L114.954 72.3165C114.153 72.9768 113.075 73.3603 111.858 73.5718C111.702 76.3605 111.057 78.6811 109.693 80.2804C108.09 82.1596 105.761 82.9766 103.014 82.9766C100.274 82.9766 97.9354 82.2285 96.3921 80.3994L96.3843 80.3901L96.3766 80.3808C95.1161 78.8401 94.5204 76.5638 94.3634 73.8114H84.3071C82.4795 73.8114 80.8214 73.5417 79.4078 72.9321C75.3714 78.5072 68.8097 82.136 61.4053 82.136C54.0988 82.136 47.6129 78.6025 43.5643 73.1522C43.0706 73.3367 42.5327 73.473 41.9644 73.5718C41.8085 76.3605 41.1634 78.6811 39.7993 80.2804C38.1964 82.1596 35.8666 82.9766 33.1201 82.9766C30.3802 82.9766 28.0415 82.2285 26.4981 80.3994L26.4903 80.3901L26.4827 80.3808C25.2221 78.8401 24.6264 76.5638 24.4694 73.8114H14.4131C11.4669 73.8114 8.96107 73.1105 7.21028 71.4144L7.20115 71.4056L7.19217 71.3966C5.55811 69.7626 4.77734 67.6633 4.77734 65.2428C4.77734 62.7417 5.41829 60.4668 6.73006 58.4708C9.71125 53.8104 13.0674 48.7764 16.7977 43.3696C19.2678 39.7609 22.7505 37.9045 27.0937 37.9045H27.1029L32.5645 37.9673C35.658 37.9683 38.2949 38.4703 39.8673 39.9721C41.4463 41.4387 42.0026 43.7852 42.0026 46.4731V49.1111ZM42.133 59.9249C42.133 49.287 50.7674 40.6526 61.4053 40.6526C72.0432 40.6526 80.6776 49.287 80.6776 59.9249C80.6776 70.5628 72.0432 79.1972 61.4053 79.1972C55.0405 79.1972 49.393 76.1063 45.8828 71.3446C46.4999 70.332 46.7107 69.0595 46.7107 67.7538C46.7107 66.026 46.3451 64.4079 45.2713 63.267C44.5139 62.4623 43.4387 61.983 42.2145 61.7068C42.1606 61.12 42.133 60.5257 42.133 59.9249ZM84.3071 70.6103C83.0019 70.6103 81.9542 70.4469 81.119 70.1624C82.7144 67.0984 83.6164 63.6164 83.6164 59.9249C83.6164 58.0853 83.3924 56.2976 82.9702 54.5878C84.9498 51.5938 87.0691 48.4596 89.3283 45.1849L89.3318 45.1798C91.2122 42.4315 93.7107 41.1081 96.9788 41.1057L102.44 41.1684H102.449C105.454 41.1684 106.951 41.7106 107.554 42.291L107.566 42.3023L107.578 42.3133C108.166 42.8563 108.695 44.062 108.695 46.4731V64.5043L110.148 64.6394C111.851 64.7979 112.581 65.192 112.834 65.461C113.1 65.743 113.404 66.3847 113.404 67.7538C113.404 69.1395 113.091 69.6769 112.896 69.8639C112.566 70.1204 111.772 70.4352 110.179 70.5518L108.695 70.6603V72.1481C108.695 75.3368 108.095 77.2214 107.258 78.203C106.433 79.1695 105.122 79.7754 103.014 79.7754C100.824 79.7754 99.5646 79.1886 98.8467 78.3444C98.088 77.4092 97.5211 75.5083 97.5211 72.2108V70.6103H84.3071ZM19.4378 45.1798C21.3183 42.4315 23.8167 41.1081 27.0848 41.1057L32.5459 41.1684H32.5551C35.5598 41.1684 37.0569 41.7106 37.6605 42.291L37.6722 42.3023L37.6842 42.3133C38.2724 42.8563 38.8014 44.062 38.8014 46.4731V64.5043L40.2537 64.6394C41.9574 64.7979 42.687 65.192 42.9402 65.461C43.2056 65.743 43.5095 66.3847 43.5095 67.7538C43.5095 69.1395 43.1974 69.6769 43.0022 69.8639C42.672 70.1204 41.878 70.4352 40.2852 70.5518L38.8014 70.6603V72.1481C38.8014 75.3368 38.201 77.2214 37.3637 78.203C36.5394 79.1695 35.2282 79.7754 33.1201 79.7754C30.9298 79.7754 29.6706 79.1886 28.9527 78.3444C28.194 77.4092 27.6271 75.5083 27.6271 72.2108V70.6103H14.4131C11.9269 70.6103 10.3752 70.0177 9.44661 69.1239C8.49184 68.1645 7.97853 66.9183 7.97853 65.2428C7.97853 63.3116 8.46557 61.6559 9.40963 60.2223L9.41548 60.2134L9.42122 60.2044C12.3809 55.5774 15.7183 50.571 19.4343 45.1849L19.4378 45.1798Z"
      fill="#444444"
    />
    <path
      d="M103.73 18.9598C103.152 18.9598 102.672 18.4896 102.672 17.9165V14.7084H99.4933C98.9056 14.6986 98.4501 14.2039 98.4599 13.6308C98.4697 13.0676 98.9301 12.6121 99.4933 12.5974H102.672V9.40388C102.662 8.81612 103.118 8.33612 103.706 8.32633C104.293 8.31653 104.773 8.77204 104.788 9.3598V12.5974H107.977C108.564 12.6072 109.02 13.1018 109.01 13.6798C108.986 14.2431 108.54 14.6986 107.977 14.7133V14.7084H104.788V17.8773C104.798 18.4553 104.342 18.9353 103.755 18.9451C103.755 18.9549 103.745 18.9549 103.73 18.9549V18.9598Z"
      fill="white"
    />
    <path
      fill-rule="evenodd"
      clip-rule="evenodd"
      d="M73.6614 97.567C73.2891 97.5082 72.9414 97.376 72.6279 97.1604L72.623 97.1555C72.6132 97.1555 72.6034 97.1457 72.5887 97.1213C71.4622 96.3278 71.1732 94.7653 71.9667 93.6388C72.7602 92.5123 74.3226 92.2233 75.4491 93.0168C76.5904 93.8004 76.8891 95.358 76.1104 96.4992C75.5569 97.2927 74.6067 97.709 73.6614 97.567ZM74.6116 94.2658C74.1512 93.9523 73.5193 94.0747 73.2059 94.5302V94.5253C73.1226 94.6478 73.0638 94.7898 73.0393 94.9466C72.9561 95.4902 73.3381 96.0045 73.8916 96.0878C74.0091 96.1123 74.1169 96.1123 74.2393 96.0878C74.783 95.98 75.1406 95.451 75.0328 94.9123C74.9838 94.6478 74.8418 94.4078 74.6116 94.2658Z"
      fill="white"
    />
    <path
      fill-rule="evenodd"
      clip-rule="evenodd"
      d="M7.97262 17.8174C8.28609 18.0329 8.63384 18.1651 9.00609 18.2239C9.95629 18.366 10.9016 17.9496 11.4551 17.1562C12.2338 16.0149 11.9351 14.4574 10.7938 13.6737C9.66731 12.8802 8.10486 13.1692 7.31629 14.2958C6.52282 15.4223 6.8118 16.9847 7.93833 17.7782C7.94813 17.8027 7.96282 17.8125 7.97262 17.8125V17.8174ZM8.55058 15.1872C8.86405 14.7317 9.50078 14.6092 9.95629 14.9227C10.1865 15.0647 10.3285 15.3047 10.3775 15.5692C10.4853 16.108 10.1277 16.637 9.58405 16.7447C9.4616 16.7692 9.35384 16.7692 9.23629 16.7447C8.68282 16.6615 8.30078 16.1472 8.38405 15.6035C8.40854 15.4468 8.46731 15.3047 8.55058 15.1823V15.1872Z"
      fill="#C4C4C4"
    />
    <path
      fill-rule="evenodd"
      clip-rule="evenodd"
      d="M27.566 111.855C27.8795 112.07 28.2272 112.203 28.5995 112.261C29.5497 112.403 30.495 111.987 31.0485 111.194C31.8272 110.052 31.5285 108.495 30.3872 107.711C29.2607 106.918 27.6983 107.207 26.9097 108.333C26.1162 109.46 26.4052 111.022 27.5317 111.816C27.5415 111.84 27.5562 111.85 27.566 111.85V111.855ZM28.144 109.225C28.4574 108.769 29.0942 108.647 29.5497 108.96C29.7799 109.102 29.9219 109.342 29.9709 109.607C30.0787 110.145 29.7211 110.674 29.1774 110.782C29.055 110.807 28.9472 110.807 28.8297 110.782C28.2762 110.699 27.8942 110.185 27.9774 109.641C28.0019 109.484 28.0607 109.342 28.144 109.22V109.225Z"
      fill="#C4C4C4"
    />
    <path
      d="M104.243 109.024C103.93 109.024 103.68 108.774 103.68 108.47V106.756H101.976C101.662 106.766 101.398 106.516 101.398 106.203C101.383 105.889 101.638 105.625 101.951 105.625H103.68V103.92C103.666 103.607 103.92 103.342 104.234 103.342C104.547 103.327 104.812 103.582 104.812 103.896V105.625H106.511C106.825 105.625 107.074 105.874 107.074 106.188C107.065 106.501 106.81 106.751 106.511 106.751V106.756H104.812V108.456C104.812 108.754 104.562 109.009 104.248 109.019L104.243 109.024Z"
      fill="#C4C4C4"
    />
    <path
      fill-rule="evenodd"
      clip-rule="evenodd"
      d="M86.3411 28.0996C86.6545 28.3151 87.0023 28.4474 87.3745 28.5061C88.3199 28.6482 89.2701 28.2318 89.8235 27.4384C90.6023 26.2972 90.3035 24.7396 89.1623 23.9608C88.0358 23.1674 86.4733 23.4563 85.6799 24.5829C84.8864 25.7094 85.1754 27.2718 86.3019 28.0653C86.3166 28.0898 86.3264 28.0996 86.3362 28.0996H86.3411ZM86.919 25.4694C87.2325 25.0139 87.8643 24.8914 88.3248 25.2049C88.555 25.3469 88.697 25.5869 88.746 25.8514C88.8537 26.3902 88.4962 26.9192 87.9525 27.0269C87.8301 27.0514 87.7223 27.0514 87.6048 27.0269C87.0513 26.9437 86.6693 26.4294 86.7525 25.8857C86.777 25.729 86.8358 25.5869 86.919 25.4645V25.4694Z"
      fill="#969696"
    />
    <path
      d="M24.3329 29.1233C24.3329 29.4269 24.5827 29.6767 24.8961 29.6767L24.901 29.6718C25.2145 29.662 25.4643 29.4073 25.4643 29.1086V27.409H27.1639V27.4041C27.4627 27.4041 27.7174 27.1543 27.7272 26.8408C27.7272 26.5274 27.4774 26.2776 27.1639 26.2776H25.4643V24.5486C25.4643 24.2351 25.1998 23.9853 24.8863 23.9951C24.5729 23.9951 24.3231 24.2596 24.3329 24.5731V26.2776H22.6039C22.2905 26.2776 22.0407 26.5421 22.0505 26.8555C22.0505 27.169 22.315 27.4188 22.6284 27.409H24.3329V29.1233Z"
      fill="#969696"
    />
    <path
      d="M9.2229 101.677C8.90943 101.677 8.65964 101.427 8.65964 101.123V99.409H6.95519C6.64172 99.4188 6.37723 99.169 6.37723 98.8556C6.36744 98.5421 6.61723 98.2776 6.9307 98.2776H8.65964V96.5731C8.64984 96.2596 8.89964 95.9951 9.21311 95.9951C9.52658 95.9804 9.79107 96.2351 9.79107 96.5486V98.2776H11.4907C11.8042 98.2776 12.054 98.5274 12.054 98.8409C12.0442 99.1543 11.7895 99.4041 11.4907 99.4041V99.409H9.79107V101.109C9.79107 101.407 9.54127 101.662 9.2278 101.672L9.2229 101.677Z"
      fill="#969696"
    />
  </svg>